<svg width="35" height="35" viewBox="0 0 35 35" fill="none" xmlns="http://www.w3.org/2000/svg">
<path d="M32.5012 26.5749C31.2796 25.3442 28.3211 23.5482 26.8857 22.8243C25.0164 21.8828 24.8625 21.8059 23.3933 22.8974C22.4133 23.6258 21.7617 24.2766 20.6148 24.032C19.4678 23.7874 16.9754 22.4082 14.7931 20.2329C12.6107 18.0576 11.1514 15.4931 10.9061 14.3501C10.6607 13.2071 11.3222 12.5632 12.0438 11.581C13.0607 10.1964 12.9838 9.96566 12.1145 8.09651C11.4368 6.64273 9.58833 3.71208 8.35291 2.49675C7.03134 1.19142 7.03134 1.42218 6.17979 1.77601C5.48652 2.06768 4.82141 2.42222 4.19281 2.8352C2.96201 3.65285 2.27892 4.33206 1.80122 5.35278C1.32351 6.37351 1.10889 8.76648 3.57588 13.2478C6.04286 17.7292 7.77367 20.0206 11.3561 23.5928C14.9385 27.1649 17.6931 29.0856 21.7202 31.344C26.7018 34.1339 28.6126 33.59 29.6365 33.1131C30.6604 32.6362 31.3427 31.9593 32.162 30.7286C32.576 30.1011 32.9314 29.4368 33.2235 28.7441C33.5781 27.8957 33.8089 27.8957 32.5012 26.5749Z" stroke="#382F87" stroke-width="2" stroke-miterlimit="10"/>
</svg>
